<mxfile host="Electron" agent="Mozilla/5.0 (X11; Linux x86_64) AppleWebKit/537.36 (KHTML, like Gecko) draw.io/26.0.4 Chrome/128.0.6613.186 Electron/32.2.5 Safari/537.36" version="26.0.4">
  <diagram name="Страница — 1" id="E1VtQy7NKcwaUyKrdY9v">
    <mxGraphModel dx="2704" dy="9963" grid="1" gridSize="10" guides="1" tooltips="1" connect="1" arrows="1" fold="1" page="1" pageScale="1" pageWidth="1654" pageHeight="2336" math="0" shadow="0">
      <root>
        <mxCell id="0" />
        <mxCell id="1" parent="0" />
        <mxCell id="2kikReYwpOozvWurzzx3-39" style="edgeStyle=orthogonalEdgeStyle;rounded=0;orthogonalLoop=1;jettySize=auto;html=1;entryX=1;entryY=0.5;entryDx=0;entryDy=0;" parent="1" source="wRdySnD_7Ozf8cjfNw9P-25" target="wRdySnD_7Ozf8cjfNw9P-27" edge="1">
          <mxGeometry relative="1" as="geometry" />
        </mxCell>
        <mxCell id="wRdySnD_7Ozf8cjfNw9P-25" value="Ввод имени" style="rounded=0;whiteSpace=wrap;html=1;" parent="1" vertex="1">
          <mxGeometry x="219.51" y="-6902.4800000000005" width="65.14" height="40.05" as="geometry" />
        </mxCell>
        <mxCell id="2kikReYwpOozvWurzzx3-40" style="edgeStyle=orthogonalEdgeStyle;rounded=0;orthogonalLoop=1;jettySize=auto;html=1;entryX=1;entryY=0.5;entryDx=0;entryDy=0;" parent="1" source="wRdySnD_7Ozf8cjfNw9P-27" target="wRdySnD_7Ozf8cjfNw9P-29" edge="1">
          <mxGeometry relative="1" as="geometry" />
        </mxCell>
        <mxCell id="wRdySnD_7Ozf8cjfNw9P-27" value="Выбор роли" style="rounded=0;whiteSpace=wrap;html=1;" parent="1" vertex="1">
          <mxGeometry x="117.14000000000001" y="-6899.43" width="65.14" height="35" as="geometry" />
        </mxCell>
        <mxCell id="2kikReYwpOozvWurzzx3-109" style="edgeStyle=orthogonalEdgeStyle;rounded=0;orthogonalLoop=1;jettySize=auto;html=1;entryX=0.5;entryY=0;entryDx=0;entryDy=0;" parent="1" source="wRdySnD_7Ozf8cjfNw9P-29" target="2kikReYwpOozvWurzzx3-89" edge="1">
          <mxGeometry relative="1" as="geometry">
            <mxPoint x="-40" y="-6040" as="targetPoint" />
            <Array as="points">
              <mxPoint x="-60" y="-6882" />
              <mxPoint x="-60" y="-6090" />
              <mxPoint x="469" y="-6090" />
            </Array>
          </mxGeometry>
        </mxCell>
        <mxCell id="wRdySnD_7Ozf8cjfNw9P-29" value="Добавление пользователя в базу данных" style="rounded=0;whiteSpace=wrap;html=1;" parent="1" vertex="1">
          <mxGeometry x="-20" y="-6906.950000000001" width="105" height="50.05" as="geometry" />
        </mxCell>
        <mxCell id="2kikReYwpOozvWurzzx3-67" style="edgeStyle=orthogonalEdgeStyle;rounded=0;orthogonalLoop=1;jettySize=auto;html=1;exitX=0.5;exitY=1;exitDx=0;exitDy=0;entryX=0.5;entryY=0;entryDx=0;entryDy=0;" parent="1" source="wRdySnD_7Ozf8cjfNw9P-31" target="wRdySnD_7Ozf8cjfNw9P-34" edge="1">
          <mxGeometry relative="1" as="geometry" />
        </mxCell>
        <mxCell id="wRdySnD_7Ozf8cjfNw9P-31" value="Парсинг https://extra.hse.ru/announcements" style="rounded=0;whiteSpace=wrap;html=1;" parent="1" vertex="1">
          <mxGeometry x="594.56" y="-6833" width="200" height="32.57" as="geometry" />
        </mxCell>
        <mxCell id="2kikReYwpOozvWurzzx3-76" style="edgeStyle=orthogonalEdgeStyle;rounded=0;orthogonalLoop=1;jettySize=auto;html=1;entryX=1;entryY=0.5;entryDx=0;entryDy=0;" parent="1" source="wRdySnD_7Ozf8cjfNw9P-34" target="wRdySnD_7Ozf8cjfNw9P-36" edge="1">
          <mxGeometry relative="1" as="geometry" />
        </mxCell>
        <mxCell id="wRdySnD_7Ozf8cjfNw9P-34" value="Получить пользователя из базы данных" style="rounded=0;whiteSpace=wrap;html=1;" parent="1" vertex="1">
          <mxGeometry x="629.6300000000001" y="-6750" width="130" height="50.05" as="geometry" />
        </mxCell>
        <mxCell id="2kikReYwpOozvWurzzx3-68" value="да" style="edgeStyle=orthogonalEdgeStyle;rounded=0;orthogonalLoop=1;jettySize=auto;html=1;exitX=0;exitY=0.5;exitDx=0;exitDy=0;entryX=1;entryY=0.5;entryDx=0;entryDy=0;" parent="1" source="wRdySnD_7Ozf8cjfNw9P-36" target="wRdySnD_7Ozf8cjfNw9P-38" edge="1">
          <mxGeometry relative="1" as="geometry" />
        </mxCell>
        <mxCell id="2kikReYwpOozvWurzzx3-72" value="нет" style="edgeStyle=orthogonalEdgeStyle;rounded=0;orthogonalLoop=1;jettySize=auto;html=1;entryX=0.5;entryY=0;entryDx=0;entryDy=0;" parent="1" source="wRdySnD_7Ozf8cjfNw9P-36" target="wRdySnD_7Ozf8cjfNw9P-93" edge="1">
          <mxGeometry relative="1" as="geometry" />
        </mxCell>
        <mxCell id="wRdySnD_7Ozf8cjfNw9P-36" value="Пользователь - организатор?" style="rhombus;whiteSpace=wrap;html=1;" parent="1" vertex="1">
          <mxGeometry x="398.19000000000005" y="-6755" width="142.5" height="60.05" as="geometry" />
        </mxCell>
        <mxCell id="wRdySnD_7Ozf8cjfNw9P-55" style="edgeStyle=orthogonalEdgeStyle;rounded=0;orthogonalLoop=1;jettySize=auto;html=1;exitX=0.5;exitY=1;exitDx=0;exitDy=0;entryX=0.5;entryY=0;entryDx=0;entryDy=0;" parent="1" source="wRdySnD_7Ozf8cjfNw9P-38" target="wRdySnD_7Ozf8cjfNw9P-54" edge="1">
          <mxGeometry relative="1" as="geometry" />
        </mxCell>
        <mxCell id="wRdySnD_7Ozf8cjfNw9P-38" value="Выбор мероприятия" style="rounded=0;whiteSpace=wrap;html=1;" parent="1" vertex="1">
          <mxGeometry x="240.00000000000009" y="-6739.95" width="90" height="29.95" as="geometry" />
        </mxCell>
        <mxCell id="wRdySnD_7Ozf8cjfNw9P-43" style="edgeStyle=orthogonalEdgeStyle;rounded=0;orthogonalLoop=1;jettySize=auto;html=1;exitX=0.5;exitY=1;exitDx=0;exitDy=0;entryX=0.5;entryY=0;entryDx=0;entryDy=0;" parent="1" source="wRdySnD_7Ozf8cjfNw9P-40" target="wRdySnD_7Ozf8cjfNw9P-42" edge="1">
          <mxGeometry relative="1" as="geometry" />
        </mxCell>
        <mxCell id="wRdySnD_7Ozf8cjfNw9P-40" value="Обращение к GigaChat с промптом по теме" style="rounded=0;whiteSpace=wrap;html=1;" parent="1" vertex="1">
          <mxGeometry x="35" y="-6600.03" width="125" height="50.05" as="geometry" />
        </mxCell>
        <mxCell id="2kikReYwpOozvWurzzx3-77" style="edgeStyle=orthogonalEdgeStyle;rounded=0;orthogonalLoop=1;jettySize=auto;html=1;exitX=0;exitY=0.5;exitDx=0;exitDy=0;entryX=0.5;entryY=0;entryDx=0;entryDy=0;" parent="1" source="wRdySnD_7Ozf8cjfNw9P-42" target="wRdySnD_7Ozf8cjfNw9P-57" edge="1">
          <mxGeometry relative="1" as="geometry">
            <Array as="points">
              <mxPoint x="20" y="-6485" />
              <mxPoint x="20" y="-6640" />
              <mxPoint x="285" y="-6640" />
            </Array>
          </mxGeometry>
        </mxCell>
        <mxCell id="wRdySnD_7Ozf8cjfNw9P-42" value="Отправка текста&lt;div&gt;пользователю&lt;/div&gt;" style="rounded=0;whiteSpace=wrap;html=1;" parent="1" vertex="1">
          <mxGeometry x="55" y="-6510" width="85" height="50" as="geometry" />
        </mxCell>
        <mxCell id="wRdySnD_7Ozf8cjfNw9P-89" style="edgeStyle=orthogonalEdgeStyle;rounded=0;orthogonalLoop=1;jettySize=auto;html=1;exitX=0.5;exitY=1;exitDx=0;exitDy=0;entryX=0.5;entryY=0;entryDx=0;entryDy=0;" parent="1" source="wRdySnD_7Ozf8cjfNw9P-45" target="wRdySnD_7Ozf8cjfNw9P-49" edge="1">
          <mxGeometry relative="1" as="geometry" />
        </mxCell>
        <mxCell id="wRdySnD_7Ozf8cjfNw9P-45" value="Ввод контрольных точек" style="rounded=0;whiteSpace=wrap;html=1;" parent="1" vertex="1">
          <mxGeometry x="242.7800000000001" y="-6480" width="83.75" height="50.05" as="geometry" />
        </mxCell>
        <mxCell id="2kikReYwpOozvWurzzx3-69" style="edgeStyle=orthogonalEdgeStyle;rounded=0;orthogonalLoop=1;jettySize=auto;html=1;exitX=0.5;exitY=1;exitDx=0;exitDy=0;entryX=0.5;entryY=0;entryDx=0;entryDy=0;" parent="1" source="wRdySnD_7Ozf8cjfNw9P-49" target="wRdySnD_7Ozf8cjfNw9P-87" edge="1">
          <mxGeometry relative="1" as="geometry" />
        </mxCell>
        <mxCell id="wRdySnD_7Ozf8cjfNw9P-49" value="Сообщение об успешном сохранении" style="rounded=0;whiteSpace=wrap;html=1;" parent="1" vertex="1">
          <mxGeometry x="237.7800000000001" y="-6400" width="93.75" height="49.95" as="geometry" />
        </mxCell>
        <mxCell id="2kikReYwpOozvWurzzx3-32" style="edgeStyle=orthogonalEdgeStyle;rounded=0;orthogonalLoop=1;jettySize=auto;html=1;entryX=0.5;entryY=0;entryDx=0;entryDy=0;" parent="1" source="wRdySnD_7Ozf8cjfNw9P-51" target="2kikReYwpOozvWurzzx3-31" edge="1">
          <mxGeometry relative="1" as="geometry" />
        </mxCell>
        <mxCell id="wRdySnD_7Ozf8cjfNw9P-51" value="Начало" style="rounded=1;whiteSpace=wrap;html=1;" parent="1" vertex="1">
          <mxGeometry x="434.94" y="-7180" width="64.99" height="30" as="geometry" />
        </mxCell>
        <mxCell id="wRdySnD_7Ozf8cjfNw9P-58" style="edgeStyle=orthogonalEdgeStyle;rounded=0;orthogonalLoop=1;jettySize=auto;html=1;exitX=0.5;exitY=1;exitDx=0;exitDy=0;entryX=0.5;entryY=0;entryDx=0;entryDy=0;" parent="1" source="wRdySnD_7Ozf8cjfNw9P-54" target="wRdySnD_7Ozf8cjfNw9P-57" edge="1">
          <mxGeometry relative="1" as="geometry" />
        </mxCell>
        <mxCell id="wRdySnD_7Ozf8cjfNw9P-54" value="Парсинг мероприятия" style="rounded=0;whiteSpace=wrap;html=1;" parent="1" vertex="1">
          <mxGeometry x="242.19000000000003" y="-6680" width="85.62" height="30" as="geometry" />
        </mxCell>
        <mxCell id="wRdySnD_7Ozf8cjfNw9P-59" value="да" style="edgeStyle=orthogonalEdgeStyle;rounded=0;orthogonalLoop=1;jettySize=auto;html=1;exitX=0;exitY=0.5;exitDx=0;exitDy=0;entryX=1;entryY=0.5;entryDx=0;entryDy=0;" parent="1" source="wRdySnD_7Ozf8cjfNw9P-57" target="wRdySnD_7Ozf8cjfNw9P-40" edge="1">
          <mxGeometry relative="1" as="geometry" />
        </mxCell>
        <mxCell id="wRdySnD_7Ozf8cjfNw9P-63" value="нет" style="edgeStyle=orthogonalEdgeStyle;rounded=0;orthogonalLoop=1;jettySize=auto;html=1;exitX=0.5;exitY=1;exitDx=0;exitDy=0;entryX=0.5;entryY=0;entryDx=0;entryDy=0;" parent="1" source="wRdySnD_7Ozf8cjfNw9P-57" target="wRdySnD_7Ozf8cjfNw9P-45" edge="1">
          <mxGeometry relative="1" as="geometry">
            <mxPoint x="398.6700000000001" y="-6260" as="sourcePoint" />
          </mxGeometry>
        </mxCell>
        <mxCell id="wRdySnD_7Ozf8cjfNw9P-57" value="Сгенерировать контрольные точки в GigaChat?" style="rhombus;whiteSpace=wrap;html=1;" parent="1" vertex="1">
          <mxGeometry x="209.99999999999994" y="-6620" width="150" height="90" as="geometry" />
        </mxCell>
        <mxCell id="wRdySnD_7Ozf8cjfNw9P-76" style="edgeStyle=orthogonalEdgeStyle;rounded=0;orthogonalLoop=1;jettySize=auto;html=1;exitX=0.5;exitY=1;exitDx=0;exitDy=0;entryX=0.5;entryY=0;entryDx=0;entryDy=0;" parent="1" source="wRdySnD_7Ozf8cjfNw9P-77" target="wRdySnD_7Ozf8cjfNw9P-79" edge="1">
          <mxGeometry relative="1" as="geometry" />
        </mxCell>
        <mxCell id="wRdySnD_7Ozf8cjfNw9P-77" value="Обращение к GigaChat с промптом по теме" style="rounded=0;whiteSpace=wrap;html=1;" parent="1" vertex="1">
          <mxGeometry x="35" y="-6300.03" width="125" height="50.05" as="geometry" />
        </mxCell>
        <mxCell id="wRdySnD_7Ozf8cjfNw9P-78" style="edgeStyle=orthogonalEdgeStyle;rounded=0;orthogonalLoop=1;jettySize=auto;html=1;exitX=0;exitY=0.5;exitDx=0;exitDy=0;entryX=0.5;entryY=0;entryDx=0;entryDy=0;" parent="1" source="wRdySnD_7Ozf8cjfNw9P-79" target="wRdySnD_7Ozf8cjfNw9P-87" edge="1">
          <mxGeometry relative="1" as="geometry">
            <Array as="points">
              <mxPoint x="15" y="-6185" />
              <mxPoint x="15" y="-6340" />
              <mxPoint x="285" y="-6340" />
            </Array>
          </mxGeometry>
        </mxCell>
        <mxCell id="wRdySnD_7Ozf8cjfNw9P-79" value="Отправка текста&lt;div&gt;пользователю&lt;/div&gt;" style="rounded=0;whiteSpace=wrap;html=1;" parent="1" vertex="1">
          <mxGeometry x="55" y="-6209.999999999999" width="85" height="50" as="geometry" />
        </mxCell>
        <mxCell id="UcXKhe7RDjSi8aUO6-n4-8" style="edgeStyle=orthogonalEdgeStyle;rounded=0;orthogonalLoop=1;jettySize=auto;html=1;entryX=0;entryY=0.5;entryDx=0;entryDy=0;" parent="1" source="wRdySnD_7Ozf8cjfNw9P-81" target="wRdySnD_7Ozf8cjfNw9P-83" edge="1">
          <mxGeometry relative="1" as="geometry" />
        </mxCell>
        <mxCell id="wRdySnD_7Ozf8cjfNw9P-81" value="Ввод контрольных вопросов" style="rounded=0;whiteSpace=wrap;html=1;" parent="1" vertex="1">
          <mxGeometry x="243.06000000000006" y="-6190.02" width="83.75" height="50.05" as="geometry" />
        </mxCell>
        <mxCell id="2kikReYwpOozvWurzzx3-108" style="edgeStyle=orthogonalEdgeStyle;rounded=0;orthogonalLoop=1;jettySize=auto;html=1;entryX=0.5;entryY=0;entryDx=0;entryDy=0;" parent="1" source="wRdySnD_7Ozf8cjfNw9P-83" target="2kikReYwpOozvWurzzx3-89" edge="1">
          <mxGeometry relative="1" as="geometry">
            <Array as="points">
              <mxPoint x="469" y="-6090" />
            </Array>
          </mxGeometry>
        </mxCell>
        <mxCell id="wRdySnD_7Ozf8cjfNw9P-83" value="Сообщение об успешном сохранении" style="rounded=0;whiteSpace=wrap;html=1;" parent="1" vertex="1">
          <mxGeometry x="359.6600000000001" y="-6190.02" width="83.75" height="50" as="geometry" />
        </mxCell>
        <mxCell id="wRdySnD_7Ozf8cjfNw9P-85" value="да" style="edgeStyle=orthogonalEdgeStyle;rounded=0;orthogonalLoop=1;jettySize=auto;html=1;exitX=0;exitY=0.5;exitDx=0;exitDy=0;entryX=1;entryY=0.5;entryDx=0;entryDy=0;" parent="1" source="wRdySnD_7Ozf8cjfNw9P-87" target="wRdySnD_7Ozf8cjfNw9P-77" edge="1">
          <mxGeometry relative="1" as="geometry" />
        </mxCell>
        <mxCell id="wRdySnD_7Ozf8cjfNw9P-86" value="нет" style="edgeStyle=orthogonalEdgeStyle;rounded=0;orthogonalLoop=1;jettySize=auto;html=1;exitX=0.5;exitY=1;exitDx=0;exitDy=0;entryX=0.5;entryY=0;entryDx=0;entryDy=0;" parent="1" source="wRdySnD_7Ozf8cjfNw9P-87" target="wRdySnD_7Ozf8cjfNw9P-81" edge="1">
          <mxGeometry relative="1" as="geometry">
            <mxPoint x="343.6700000000001" y="-6010.09" as="sourcePoint" />
          </mxGeometry>
        </mxCell>
        <mxCell id="wRdySnD_7Ozf8cjfNw9P-87" value="Сгенерировать контрольные вопросы в GigaChat?" style="rhombus;whiteSpace=wrap;html=1;" parent="1" vertex="1">
          <mxGeometry x="209.65999999999997" y="-6320" width="150" height="90" as="geometry" />
        </mxCell>
        <mxCell id="wRdySnD_7Ozf8cjfNw9P-99" style="edgeStyle=orthogonalEdgeStyle;rounded=0;orthogonalLoop=1;jettySize=auto;html=1;exitX=0.5;exitY=1;exitDx=0;exitDy=0;entryX=0.5;entryY=0;entryDx=0;entryDy=0;" parent="1" source="wRdySnD_7Ozf8cjfNw9P-91" target="wRdySnD_7Ozf8cjfNw9P-98" edge="1">
          <mxGeometry relative="1" as="geometry" />
        </mxCell>
        <mxCell id="wRdySnD_7Ozf8cjfNw9P-91" value="Вывод пользователю доступных мероприятий" style="rounded=0;whiteSpace=wrap;html=1;" parent="1" vertex="1">
          <mxGeometry x="649.5600000000001" y="-6635" width="90" height="60" as="geometry" />
        </mxCell>
        <mxCell id="2kikReYwpOozvWurzzx3-73" value="нет" style="edgeStyle=orthogonalEdgeStyle;rounded=0;orthogonalLoop=1;jettySize=auto;html=1;entryX=0.5;entryY=0;entryDx=0;entryDy=0;" parent="1" source="wRdySnD_7Ozf8cjfNw9P-93" target="wRdySnD_7Ozf8cjfNw9P-96" edge="1">
          <mxGeometry relative="1" as="geometry" />
        </mxCell>
        <mxCell id="2kikReYwpOozvWurzzx3-78" value="да" style="edgeStyle=orthogonalEdgeStyle;rounded=0;orthogonalLoop=1;jettySize=auto;html=1;entryX=0;entryY=0.5;entryDx=0;entryDy=0;" parent="1" source="wRdySnD_7Ozf8cjfNw9P-93" target="wRdySnD_7Ozf8cjfNw9P-91" edge="1">
          <mxGeometry relative="1" as="geometry" />
        </mxCell>
        <mxCell id="wRdySnD_7Ozf8cjfNw9P-93" value="Есть доступные мероприятия для&lt;span style=&quot;background-color: transparent; color: light-dark(rgb(0, 0, 0), rgb(255, 255, 255));&quot;&gt;&amp;nbsp;&lt;/span&gt;&lt;div&gt;пользователя?&lt;/div&gt;" style="rhombus;whiteSpace=wrap;html=1;" parent="1" vertex="1">
          <mxGeometry x="390.00000000000006" y="-6650" width="160" height="90" as="geometry" />
        </mxCell>
        <mxCell id="2kikReYwpOozvWurzzx3-116" style="edgeStyle=orthogonalEdgeStyle;rounded=0;orthogonalLoop=1;jettySize=auto;html=1;entryX=0.5;entryY=0;entryDx=0;entryDy=0;" parent="1" source="wRdySnD_7Ozf8cjfNw9P-96" target="2kikReYwpOozvWurzzx3-89" edge="1">
          <mxGeometry relative="1" as="geometry" />
        </mxCell>
        <mxCell id="wRdySnD_7Ozf8cjfNw9P-96" value="Сообщение об отсутствии доступных мероприятий" style="rounded=0;whiteSpace=wrap;html=1;" parent="1" vertex="1">
          <mxGeometry x="420.0000000000001" y="-6520.05" width="100" height="60.05" as="geometry" />
        </mxCell>
        <mxCell id="wRdySnD_7Ozf8cjfNw9P-101" style="edgeStyle=orthogonalEdgeStyle;rounded=0;orthogonalLoop=1;jettySize=auto;html=1;exitX=0.5;exitY=1;exitDx=0;exitDy=0;entryX=0.5;entryY=0;entryDx=0;entryDy=0;" parent="1" source="wRdySnD_7Ozf8cjfNw9P-98" target="wRdySnD_7Ozf8cjfNw9P-100" edge="1">
          <mxGeometry relative="1" as="geometry" />
        </mxCell>
        <mxCell id="wRdySnD_7Ozf8cjfNw9P-98" value="Запись на выбранное пользователем мероприятие" style="rounded=0;whiteSpace=wrap;html=1;" parent="1" vertex="1">
          <mxGeometry x="644.5600000000001" y="-6545.01" width="100" height="59.95" as="geometry" />
        </mxCell>
        <mxCell id="wRdySnD_7Ozf8cjfNw9P-103" style="edgeStyle=orthogonalEdgeStyle;rounded=0;orthogonalLoop=1;jettySize=auto;html=1;exitX=0.5;exitY=1;exitDx=0;exitDy=0;entryX=0.5;entryY=0;entryDx=0;entryDy=0;" parent="1" source="wRdySnD_7Ozf8cjfNw9P-100" target="wRdySnD_7Ozf8cjfNw9P-102" edge="1">
          <mxGeometry relative="1" as="geometry" />
        </mxCell>
        <mxCell id="wRdySnD_7Ozf8cjfNw9P-100" value="Уведомление за час до начала мероприятия&amp;nbsp;" style="rounded=0;whiteSpace=wrap;html=1;" parent="1" vertex="1">
          <mxGeometry x="642.0600000000001" y="-6447.5" width="105" height="44.99" as="geometry" />
        </mxCell>
        <mxCell id="2kikReYwpOozvWurzzx3-117" style="edgeStyle=orthogonalEdgeStyle;rounded=0;orthogonalLoop=1;jettySize=auto;html=1;entryX=0.5;entryY=0;entryDx=0;entryDy=0;" parent="1" source="wRdySnD_7Ozf8cjfNw9P-102" target="2kikReYwpOozvWurzzx3-89" edge="1">
          <mxGeometry relative="1" as="geometry">
            <Array as="points">
              <mxPoint x="695" y="-6090" />
              <mxPoint x="469" y="-6090" />
            </Array>
          </mxGeometry>
        </mxCell>
        <mxCell id="wRdySnD_7Ozf8cjfNw9P-102" value="Уведомление о начале мероприятия" style="rounded=0;whiteSpace=wrap;html=1;" parent="1" vertex="1">
          <mxGeometry x="634.6300000000001" y="-6370.03" width="120" height="40" as="geometry" />
        </mxCell>
        <mxCell id="2vY8Qzy-tUt8YDtAVIDN-4" style="edgeStyle=orthogonalEdgeStyle;rounded=0;orthogonalLoop=1;jettySize=auto;html=1;entryX=0.5;entryY=0;entryDx=0;entryDy=0;" edge="1" parent="1" source="wRdySnD_7Ozf8cjfNw9P-108" target="wRdySnD_7Ozf8cjfNw9P-111">
          <mxGeometry relative="1" as="geometry" />
        </mxCell>
        <mxCell id="wRdySnD_7Ozf8cjfNw9P-108" value="Выбор мероприятия" style="rounded=0;whiteSpace=wrap;html=1;" parent="1" vertex="1">
          <mxGeometry x="854.6800000000001" y="-6715.719999999999" width="90" height="40" as="geometry" />
        </mxCell>
        <mxCell id="wRdySnD_7Ozf8cjfNw9P-117" style="edgeStyle=orthogonalEdgeStyle;rounded=0;orthogonalLoop=1;jettySize=auto;html=1;exitX=0.5;exitY=1;exitDx=0;exitDy=0;entryX=0.5;entryY=0;entryDx=0;entryDy=0;" parent="1" source="wRdySnD_7Ozf8cjfNw9P-111" target="wRdySnD_7Ozf8cjfNw9P-113" edge="1">
          <mxGeometry relative="1" as="geometry" />
        </mxCell>
        <mxCell id="wRdySnD_7Ozf8cjfNw9P-111" value="Цикл i&lt;div&gt;от 1 до n&lt;/div&gt;" style="shape=loopLimit;whiteSpace=wrap;html=1;" parent="1" vertex="1">
          <mxGeometry x="864.6800000000001" y="-6649" width="70" height="50" as="geometry" />
        </mxCell>
        <mxCell id="wRdySnD_7Ozf8cjfNw9P-121" style="edgeStyle=orthogonalEdgeStyle;rounded=0;orthogonalLoop=1;jettySize=auto;html=1;exitX=0.5;exitY=1;exitDx=0;exitDy=0;entryX=0.5;entryY=0;entryDx=0;entryDy=0;" parent="1" source="wRdySnD_7Ozf8cjfNw9P-113" target="wRdySnD_7Ozf8cjfNw9P-120" edge="1">
          <mxGeometry relative="1" as="geometry" />
        </mxCell>
        <mxCell id="wRdySnD_7Ozf8cjfNw9P-113" value="Задать вопрос №&amp;lt;n&amp;gt;" style="rounded=0;whiteSpace=wrap;html=1;" parent="1" vertex="1">
          <mxGeometry x="854.6800000000001" y="-6568.95" width="90" height="40" as="geometry" />
        </mxCell>
        <mxCell id="wRdySnD_7Ozf8cjfNw9P-125" value="нет" style="edgeStyle=orthogonalEdgeStyle;rounded=0;orthogonalLoop=1;jettySize=auto;html=1;exitX=1;exitY=0.5;exitDx=0;exitDy=0;entryX=0;entryY=0.5;entryDx=0;entryDy=0;" parent="1" source="wRdySnD_7Ozf8cjfNw9P-120" target="wRdySnD_7Ozf8cjfNw9P-124" edge="1">
          <mxGeometry relative="1" as="geometry" />
        </mxCell>
        <mxCell id="2kikReYwpOozvWurzzx3-80" value="да" style="edgeStyle=orthogonalEdgeStyle;rounded=0;orthogonalLoop=1;jettySize=auto;html=1;entryX=0.5;entryY=0;entryDx=0;entryDy=0;" parent="1" source="wRdySnD_7Ozf8cjfNw9P-120" target="wRdySnD_7Ozf8cjfNw9P-122" edge="1">
          <mxGeometry relative="1" as="geometry" />
        </mxCell>
        <mxCell id="wRdySnD_7Ozf8cjfNw9P-120" value="Пользователь&amp;nbsp;&lt;div&gt;прошел точку?&lt;/div&gt;" style="rhombus;whiteSpace=wrap;html=1;" parent="1" vertex="1">
          <mxGeometry x="834.6800000000001" y="-6499" width="130" height="60" as="geometry" />
        </mxCell>
        <mxCell id="wRdySnD_7Ozf8cjfNw9P-136" style="edgeStyle=orthogonalEdgeStyle;rounded=0;orthogonalLoop=1;jettySize=auto;html=1;exitX=0.5;exitY=1;exitDx=0;exitDy=0;entryX=0.5;entryY=1;entryDx=0;entryDy=0;" parent="1" source="wRdySnD_7Ozf8cjfNw9P-122" target="wRdySnD_7Ozf8cjfNw9P-132" edge="1">
          <mxGeometry relative="1" as="geometry" />
        </mxCell>
        <mxCell id="wRdySnD_7Ozf8cjfNw9P-122" value="Начислить пользователю +1 балл" style="rounded=0;whiteSpace=wrap;html=1;" parent="1" vertex="1">
          <mxGeometry x="847.1800000000001" y="-6399" width="105" height="45.06" as="geometry" />
        </mxCell>
        <mxCell id="UcXKhe7RDjSi8aUO6-n4-1" style="edgeStyle=orthogonalEdgeStyle;rounded=0;orthogonalLoop=1;jettySize=auto;html=1;entryX=0.5;entryY=1;entryDx=0;entryDy=0;" parent="1" source="wRdySnD_7Ozf8cjfNw9P-124" target="wRdySnD_7Ozf8cjfNw9P-132" edge="1">
          <mxGeometry relative="1" as="geometry">
            <Array as="points">
              <mxPoint x="1074" y="-6340" />
              <mxPoint x="900" y="-6340" />
            </Array>
          </mxGeometry>
        </mxCell>
        <mxCell id="wRdySnD_7Ozf8cjfNw9P-124" value="Начислить пользователю 0 баллов" style="rounded=0;whiteSpace=wrap;html=1;" parent="1" vertex="1">
          <mxGeometry x="1021.1799999999998" y="-6491.530000000001" width="106.25" height="45.06" as="geometry" />
        </mxCell>
        <mxCell id="2kikReYwpOozvWurzzx3-83" style="edgeStyle=orthogonalEdgeStyle;rounded=0;orthogonalLoop=1;jettySize=auto;html=1;entryX=0.5;entryY=0;entryDx=0;entryDy=0;" parent="1" source="wRdySnD_7Ozf8cjfNw9P-132" target="wRdySnD_7Ozf8cjfNw9P-138" edge="1">
          <mxGeometry relative="1" as="geometry" />
        </mxCell>
        <mxCell id="wRdySnD_7Ozf8cjfNw9P-132" value="" style="shape=loopLimit;whiteSpace=wrap;html=1;size=20;rotation=-180;" parent="1" vertex="1">
          <mxGeometry x="864.6800000000001" y="-6319" width="70" height="50" as="geometry" />
        </mxCell>
        <mxCell id="wRdySnD_7Ozf8cjfNw9P-135" value="Увеличить i на 1" style="text;html=1;align=center;verticalAlign=middle;whiteSpace=wrap;rounded=0;" parent="1" vertex="1">
          <mxGeometry x="869.6800000000001" y="-6309" width="60" height="30" as="geometry" />
        </mxCell>
        <mxCell id="2kikReYwpOozvWurzzx3-118" style="edgeStyle=orthogonalEdgeStyle;rounded=0;orthogonalLoop=1;jettySize=auto;html=1;entryX=0.5;entryY=0;entryDx=0;entryDy=0;" parent="1" source="wRdySnD_7Ozf8cjfNw9P-138" target="2kikReYwpOozvWurzzx3-89" edge="1">
          <mxGeometry relative="1" as="geometry">
            <Array as="points">
              <mxPoint x="900" y="-6090" />
              <mxPoint x="469" y="-6090" />
            </Array>
          </mxGeometry>
        </mxCell>
        <mxCell id="wRdySnD_7Ozf8cjfNw9P-138" value="Вывод пользователю сообщения об успешном завершении точек" style="rounded=0;whiteSpace=wrap;html=1;" parent="1" vertex="1">
          <mxGeometry x="834.6800000000001" y="-6249.06" width="130" height="60.06" as="geometry" />
        </mxCell>
        <mxCell id="wRdySnD_7Ozf8cjfNw9P-145" value="нет" style="edgeStyle=orthogonalEdgeStyle;rounded=0;orthogonalLoop=1;jettySize=auto;html=1;exitX=0.5;exitY=1;exitDx=0;exitDy=0;entryX=0.5;entryY=0;entryDx=0;entryDy=0;" parent="1" source="wRdySnD_7Ozf8cjfNw9P-142" target="wRdySnD_7Ozf8cjfNw9P-144" edge="1">
          <mxGeometry relative="1" as="geometry" />
        </mxCell>
        <mxCell id="wRdySnD_7Ozf8cjfNw9P-142" value="Мероприятие закончилось?" style="rhombus;whiteSpace=wrap;html=1;" parent="1" vertex="1">
          <mxGeometry x="1039.8000000000002" y="-6720" width="130" height="70" as="geometry" />
        </mxCell>
        <mxCell id="wRdySnD_7Ozf8cjfNw9P-144" value="Вывод сообщения пользователю об отсутствии доступных вопросов" style="rounded=0;whiteSpace=wrap;html=1;" parent="1" vertex="1">
          <mxGeometry x="1044.8000000000002" y="-6610" width="120" height="60" as="geometry" />
        </mxCell>
        <mxCell id="wRdySnD_7Ozf8cjfNw9P-146" value="да" style="edgeStyle=orthogonalEdgeStyle;rounded=0;orthogonalLoop=1;jettySize=auto;html=1;exitX=1;exitY=0.5;exitDx=0;exitDy=0;entryX=0;entryY=0.5;entryDx=0;entryDy=0;" parent="1" source="wRdySnD_7Ozf8cjfNw9P-142" target="wRdySnD_7Ozf8cjfNw9P-149" edge="1">
          <mxGeometry relative="1" as="geometry">
            <mxPoint x="1147.4299999999998" y="-5565" as="sourcePoint" />
          </mxGeometry>
        </mxCell>
        <mxCell id="wRdySnD_7Ozf8cjfNw9P-148" style="edgeStyle=orthogonalEdgeStyle;rounded=0;orthogonalLoop=1;jettySize=auto;html=1;exitX=0.5;exitY=1;exitDx=0;exitDy=0;entryX=0.5;entryY=0;entryDx=0;entryDy=0;" parent="1" source="wRdySnD_7Ozf8cjfNw9P-149" target="wRdySnD_7Ozf8cjfNw9P-151" edge="1">
          <mxGeometry relative="1" as="geometry" />
        </mxCell>
        <mxCell id="wRdySnD_7Ozf8cjfNw9P-149" value="Цикл i&lt;div&gt;от 1 до n&lt;/div&gt;" style="shape=loopLimit;whiteSpace=wrap;html=1;" parent="1" vertex="1">
          <mxGeometry x="1222.4299999999998" y="-6710" width="70" height="50" as="geometry" />
        </mxCell>
        <mxCell id="wRdySnD_7Ozf8cjfNw9P-150" style="edgeStyle=orthogonalEdgeStyle;rounded=0;orthogonalLoop=1;jettySize=auto;html=1;exitX=0.5;exitY=1;exitDx=0;exitDy=0;entryX=0.5;entryY=0;entryDx=0;entryDy=0;" parent="1" source="wRdySnD_7Ozf8cjfNw9P-151" target="wRdySnD_7Ozf8cjfNw9P-154" edge="1">
          <mxGeometry relative="1" as="geometry" />
        </mxCell>
        <mxCell id="wRdySnD_7Ozf8cjfNw9P-151" value="Задать вопрос №&amp;lt;n&amp;gt;" style="rounded=0;whiteSpace=wrap;html=1;" parent="1" vertex="1">
          <mxGeometry x="1212.4299999999998" y="-6625" width="90" height="40" as="geometry" />
        </mxCell>
        <mxCell id="wRdySnD_7Ozf8cjfNw9P-153" value="нет" style="edgeStyle=orthogonalEdgeStyle;rounded=0;orthogonalLoop=1;jettySize=auto;html=1;exitX=1;exitY=0.5;exitDx=0;exitDy=0;entryX=0;entryY=0.5;entryDx=0;entryDy=0;" parent="1" source="wRdySnD_7Ozf8cjfNw9P-154" target="wRdySnD_7Ozf8cjfNw9P-158" edge="1">
          <mxGeometry relative="1" as="geometry" />
        </mxCell>
        <mxCell id="2kikReYwpOozvWurzzx3-87" value="да" style="edgeStyle=orthogonalEdgeStyle;rounded=0;orthogonalLoop=1;jettySize=auto;html=1;exitX=0.5;exitY=1;exitDx=0;exitDy=0;entryX=0.5;entryY=0;entryDx=0;entryDy=0;" parent="1" source="wRdySnD_7Ozf8cjfNw9P-154" target="wRdySnD_7Ozf8cjfNw9P-156" edge="1">
          <mxGeometry relative="1" as="geometry" />
        </mxCell>
        <mxCell id="wRdySnD_7Ozf8cjfNw9P-154" value="Ответ верный?" style="rhombus;whiteSpace=wrap;html=1;" parent="1" vertex="1">
          <mxGeometry x="1192.4299999999998" y="-6551.53" width="130" height="60" as="geometry" />
        </mxCell>
        <mxCell id="wRdySnD_7Ozf8cjfNw9P-155" style="edgeStyle=orthogonalEdgeStyle;rounded=0;orthogonalLoop=1;jettySize=auto;html=1;exitX=0.5;exitY=1;exitDx=0;exitDy=0;entryX=0.5;entryY=1;entryDx=0;entryDy=0;" parent="1" source="wRdySnD_7Ozf8cjfNw9P-156" target="wRdySnD_7Ozf8cjfNw9P-160" edge="1">
          <mxGeometry relative="1" as="geometry" />
        </mxCell>
        <mxCell id="wRdySnD_7Ozf8cjfNw9P-156" value="Начислить пользователю +1 балл" style="rounded=0;whiteSpace=wrap;html=1;" parent="1" vertex="1">
          <mxGeometry x="1204.93" y="-6447.57" width="105" height="45.06" as="geometry" />
        </mxCell>
        <mxCell id="wRdySnD_7Ozf8cjfNw9P-157" style="edgeStyle=orthogonalEdgeStyle;rounded=0;orthogonalLoop=1;jettySize=auto;html=1;exitX=0.5;exitY=1;exitDx=0;exitDy=0;entryX=0.5;entryY=1;entryDx=0;entryDy=0;" parent="1" source="wRdySnD_7Ozf8cjfNw9P-158" target="wRdySnD_7Ozf8cjfNw9P-160" edge="1">
          <mxGeometry relative="1" as="geometry">
            <Array as="points">
              <mxPoint x="1433" y="-6390" />
              <mxPoint x="1257" y="-6390" />
            </Array>
          </mxGeometry>
        </mxCell>
        <mxCell id="wRdySnD_7Ozf8cjfNw9P-158" value="Начислить пользователю 0 баллов" style="rounded=0;whiteSpace=wrap;html=1;" parent="1" vertex="1">
          <mxGeometry x="1379.9999999999998" y="-6544.06" width="106.25" height="45.06" as="geometry" />
        </mxCell>
        <mxCell id="2kikReYwpOozvWurzzx3-88" style="edgeStyle=orthogonalEdgeStyle;rounded=0;orthogonalLoop=1;jettySize=auto;html=1;entryX=0.5;entryY=0;entryDx=0;entryDy=0;" parent="1" source="wRdySnD_7Ozf8cjfNw9P-160" target="wRdySnD_7Ozf8cjfNw9P-162" edge="1">
          <mxGeometry relative="1" as="geometry" />
        </mxCell>
        <mxCell id="wRdySnD_7Ozf8cjfNw9P-160" value="" style="shape=loopLimit;whiteSpace=wrap;html=1;size=20;rotation=-180;" parent="1" vertex="1">
          <mxGeometry x="1222.4299999999998" y="-6369.999999999999" width="70" height="50" as="geometry" />
        </mxCell>
        <mxCell id="wRdySnD_7Ozf8cjfNw9P-161" value="Увеличить i на 1" style="text;html=1;align=center;verticalAlign=middle;whiteSpace=wrap;rounded=0;" parent="1" vertex="1">
          <mxGeometry x="1227.4299999999998" y="-6359.999999999999" width="60" height="30" as="geometry" />
        </mxCell>
        <mxCell id="2kikReYwpOozvWurzzx3-120" style="edgeStyle=orthogonalEdgeStyle;rounded=0;orthogonalLoop=1;jettySize=auto;html=1;entryX=0.5;entryY=0;entryDx=0;entryDy=0;" parent="1" source="wRdySnD_7Ozf8cjfNw9P-162" target="2kikReYwpOozvWurzzx3-89" edge="1">
          <mxGeometry relative="1" as="geometry">
            <Array as="points">
              <mxPoint x="1257" y="-6090" />
              <mxPoint x="469" y="-6090" />
            </Array>
          </mxGeometry>
        </mxCell>
        <mxCell id="wRdySnD_7Ozf8cjfNw9P-162" value="Вывод пользователю сообщения об успешном завершении вопросов" style="rounded=0;whiteSpace=wrap;html=1;" parent="1" vertex="1">
          <mxGeometry x="1192.43" y="-6290.09" width="130" height="60.06" as="geometry" />
        </mxCell>
        <mxCell id="2kikReYwpOozvWurzzx3-66" style="edgeStyle=orthogonalEdgeStyle;rounded=0;orthogonalLoop=1;jettySize=auto;html=1;exitX=0.5;exitY=1;exitDx=0;exitDy=0;entryX=0.5;entryY=0;entryDx=0;entryDy=0;" parent="1" source="2kikReYwpOozvWurzzx3-10" target="wRdySnD_7Ozf8cjfNw9P-31" edge="1">
          <mxGeometry relative="1" as="geometry" />
        </mxCell>
        <mxCell id="2kikReYwpOozvWurzzx3-10" value="/start" style="rounded=0;whiteSpace=wrap;html=1;" parent="1" vertex="1">
          <mxGeometry x="652" y="-6901.93" width="85.12" height="40" as="geometry" />
        </mxCell>
        <mxCell id="UcXKhe7RDjSi8aUO6-n4-3" style="edgeStyle=orthogonalEdgeStyle;rounded=0;orthogonalLoop=1;jettySize=auto;html=1;entryX=0.5;entryY=0;entryDx=0;entryDy=0;" parent="1" source="2kikReYwpOozvWurzzx3-13" target="UcXKhe7RDjSi8aUO6-n4-2" edge="1">
          <mxGeometry relative="1" as="geometry" />
        </mxCell>
        <mxCell id="2kikReYwpOozvWurzzx3-13" value="/stops" style="rounded=0;whiteSpace=wrap;html=1;" parent="1" vertex="1">
          <mxGeometry x="857.12" y="-6901.93" width="85.12" height="40" as="geometry" />
        </mxCell>
        <mxCell id="UcXKhe7RDjSi8aUO6-n4-6" style="edgeStyle=orthogonalEdgeStyle;rounded=0;orthogonalLoop=1;jettySize=auto;html=1;" parent="1" source="2kikReYwpOozvWurzzx3-14" target="UcXKhe7RDjSi8aUO6-n4-5" edge="1">
          <mxGeometry relative="1" as="geometry" />
        </mxCell>
        <mxCell id="2kikReYwpOozvWurzzx3-14" value="/questions" style="rounded=0;whiteSpace=wrap;html=1;" parent="1" vertex="1">
          <mxGeometry x="1062.24" y="-6901.93" width="85.12" height="40" as="geometry" />
        </mxCell>
        <mxCell id="2kikReYwpOozvWurzzx3-64" style="edgeStyle=orthogonalEdgeStyle;rounded=0;orthogonalLoop=1;jettySize=auto;html=1;" parent="1" source="2kikReYwpOozvWurzzx3-15" target="2kikReYwpOozvWurzzx3-63" edge="1">
          <mxGeometry relative="1" as="geometry" />
        </mxCell>
        <mxCell id="2kikReYwpOozvWurzzx3-15" value="/cancel" style="rounded=0;whiteSpace=wrap;html=1;" parent="1" vertex="1">
          <mxGeometry x="426.88" y="-6901.93" width="85.12" height="40" as="geometry" />
        </mxCell>
        <mxCell id="2kikReYwpOozvWurzzx3-23" value="нет" style="edgeStyle=orthogonalEdgeStyle;rounded=0;orthogonalLoop=1;jettySize=auto;html=1;exitX=0.5;exitY=1;exitDx=0;exitDy=0;entryX=0.5;entryY=0;entryDx=0;entryDy=0;" parent="1" source="2kikReYwpOozvWurzzx3-17" target="wRdySnD_7Ozf8cjfNw9P-25" edge="1">
          <mxGeometry relative="1" as="geometry" />
        </mxCell>
        <mxCell id="2kikReYwpOozvWurzzx3-25" value="да" style="edgeStyle=orthogonalEdgeStyle;rounded=0;orthogonalLoop=1;jettySize=auto;html=1;exitX=0;exitY=0.5;exitDx=0;exitDy=0;entryX=1;entryY=0.5;entryDx=0;entryDy=0;" parent="1" source="2kikReYwpOozvWurzzx3-17" target="2kikReYwpOozvWurzzx3-24" edge="1">
          <mxGeometry relative="1" as="geometry" />
        </mxCell>
        <mxCell id="2kikReYwpOozvWurzzx3-17" value="Пользователь зарегистрирован?" style="rhombus;whiteSpace=wrap;html=1;" parent="1" vertex="1">
          <mxGeometry x="179.27999999999997" y="-7040" width="145.6" height="100" as="geometry" />
        </mxCell>
        <mxCell id="2kikReYwpOozvWurzzx3-110" style="edgeStyle=orthogonalEdgeStyle;rounded=0;orthogonalLoop=1;jettySize=auto;html=1;entryX=0.5;entryY=0;entryDx=0;entryDy=0;" parent="1" source="2kikReYwpOozvWurzzx3-24" target="2kikReYwpOozvWurzzx3-89" edge="1">
          <mxGeometry relative="1" as="geometry">
            <Array as="points">
              <mxPoint x="-60" y="-6990" />
              <mxPoint x="-60" y="-6090" />
              <mxPoint x="469" y="-6090" />
            </Array>
          </mxGeometry>
        </mxCell>
        <mxCell id="2kikReYwpOozvWurzzx3-24" value="Сообщение пользователю, что он уже зарегистрирован" style="rounded=0;whiteSpace=wrap;html=1;" parent="1" vertex="1">
          <mxGeometry x="-19.99999999999999" y="-7020" width="120" height="60" as="geometry" />
        </mxCell>
        <mxCell id="2kikReYwpOozvWurzzx3-34" style="edgeStyle=orthogonalEdgeStyle;rounded=0;orthogonalLoop=1;jettySize=auto;html=1;entryX=0.5;entryY=0;entryDx=0;entryDy=0;" parent="1" source="2kikReYwpOozvWurzzx3-31" target="2kikReYwpOozvWurzzx3-33" edge="1">
          <mxGeometry relative="1" as="geometry" />
        </mxCell>
        <mxCell id="2kikReYwpOozvWurzzx3-31" value="Пользователь вводит комманду" style="rounded=0;whiteSpace=wrap;html=1;" parent="1" vertex="1">
          <mxGeometry x="424.88" y="-7120" width="85.12" height="60" as="geometry" />
        </mxCell>
        <mxCell id="2kikReYwpOozvWurzzx3-36" value="да" style="edgeStyle=orthogonalEdgeStyle;rounded=0;orthogonalLoop=1;jettySize=auto;html=1;entryX=1;entryY=0.5;entryDx=0;entryDy=0;" parent="1" source="2kikReYwpOozvWurzzx3-33" target="2kikReYwpOozvWurzzx3-17" edge="1">
          <mxGeometry relative="1" as="geometry" />
        </mxCell>
        <mxCell id="2kikReYwpOozvWurzzx3-46" value="нет" style="edgeStyle=orthogonalEdgeStyle;rounded=0;orthogonalLoop=1;jettySize=auto;html=1;entryX=0;entryY=0.5;entryDx=0;entryDy=0;" parent="1" source="2kikReYwpOozvWurzzx3-33" target="2kikReYwpOozvWurzzx3-42" edge="1">
          <mxGeometry relative="1" as="geometry" />
        </mxCell>
        <mxCell id="2kikReYwpOozvWurzzx3-33" value="Команда - /register?" style="rhombus;whiteSpace=wrap;html=1;" parent="1" vertex="1">
          <mxGeometry x="380.2099999999999" y="-7030" width="174.45" height="80" as="geometry" />
        </mxCell>
        <mxCell id="2kikReYwpOozvWurzzx3-47" value="да" style="edgeStyle=orthogonalEdgeStyle;rounded=0;orthogonalLoop=1;jettySize=auto;html=1;exitX=0.5;exitY=1;exitDx=0;exitDy=0;entryX=0.5;entryY=0;entryDx=0;entryDy=0;" parent="1" source="2kikReYwpOozvWurzzx3-42" target="2kikReYwpOozvWurzzx3-45" edge="1">
          <mxGeometry relative="1" as="geometry" />
        </mxCell>
        <mxCell id="2kikReYwpOozvWurzzx3-61" value="нет" style="edgeStyle=orthogonalEdgeStyle;rounded=0;orthogonalLoop=1;jettySize=auto;html=1;entryX=0;entryY=0.5;entryDx=0;entryDy=0;" parent="1" source="2kikReYwpOozvWurzzx3-42" target="2kikReYwpOozvWurzzx3-60" edge="1">
          <mxGeometry relative="1" as="geometry" />
        </mxCell>
        <mxCell id="2kikReYwpOozvWurzzx3-42" value="Пользователь &lt;br&gt;зарегистрирован?" style="rhombus;whiteSpace=wrap;html=1;" parent="1" vertex="1">
          <mxGeometry x="609.26" y="-7120" width="170.74" height="60" as="geometry" />
        </mxCell>
        <mxCell id="2kikReYwpOozvWurzzx3-49" style="edgeStyle=orthogonalEdgeStyle;rounded=0;orthogonalLoop=1;jettySize=auto;html=1;entryX=0.5;entryY=0;entryDx=0;entryDy=0;" parent="1" source="2kikReYwpOozvWurzzx3-45" target="2kikReYwpOozvWurzzx3-10" edge="1">
          <mxGeometry relative="1" as="geometry" />
        </mxCell>
        <mxCell id="2kikReYwpOozvWurzzx3-50" style="edgeStyle=orthogonalEdgeStyle;rounded=0;orthogonalLoop=1;jettySize=auto;html=1;entryX=0.5;entryY=0;entryDx=0;entryDy=0;" parent="1" source="2kikReYwpOozvWurzzx3-45" target="2kikReYwpOozvWurzzx3-15" edge="1">
          <mxGeometry relative="1" as="geometry">
            <Array as="points">
              <mxPoint x="695" y="-6930" />
              <mxPoint x="469" y="-6930" />
            </Array>
          </mxGeometry>
        </mxCell>
        <mxCell id="2kikReYwpOozvWurzzx3-51" style="edgeStyle=orthogonalEdgeStyle;rounded=0;orthogonalLoop=1;jettySize=auto;html=1;entryX=0.5;entryY=0;entryDx=0;entryDy=0;" parent="1" source="2kikReYwpOozvWurzzx3-45" target="2kikReYwpOozvWurzzx3-13" edge="1">
          <mxGeometry relative="1" as="geometry">
            <Array as="points">
              <mxPoint x="695" y="-6930" />
              <mxPoint x="900" y="-6930" />
            </Array>
          </mxGeometry>
        </mxCell>
        <mxCell id="2kikReYwpOozvWurzzx3-52" style="edgeStyle=orthogonalEdgeStyle;rounded=0;orthogonalLoop=1;jettySize=auto;html=1;entryX=0.5;entryY=0;entryDx=0;entryDy=0;" parent="1" source="2kikReYwpOozvWurzzx3-45" target="2kikReYwpOozvWurzzx3-14" edge="1">
          <mxGeometry relative="1" as="geometry">
            <Array as="points">
              <mxPoint x="695" y="-6930" />
              <mxPoint x="1105" y="-6930" />
            </Array>
          </mxGeometry>
        </mxCell>
        <mxCell id="2vY8Qzy-tUt8YDtAVIDN-1" style="edgeStyle=orthogonalEdgeStyle;rounded=0;orthogonalLoop=1;jettySize=auto;html=1;entryX=0.5;entryY=0;entryDx=0;entryDy=0;" edge="1" parent="1" source="2kikReYwpOozvWurzzx3-45" target="2kikReYwpOozvWurzzx3-53">
          <mxGeometry relative="1" as="geometry">
            <Array as="points">
              <mxPoint x="695" y="-6930" />
              <mxPoint x="1310" y="-6930" />
            </Array>
          </mxGeometry>
        </mxCell>
        <mxCell id="2kikReYwpOozvWurzzx3-45" value="Выбор команды" style="rhombus;whiteSpace=wrap;html=1;" parent="1" vertex="1">
          <mxGeometry x="607.4099999999999" y="-7030" width="174.45" height="80" as="geometry" />
        </mxCell>
        <mxCell id="UcXKhe7RDjSi8aUO6-n4-14" style="edgeStyle=orthogonalEdgeStyle;rounded=0;orthogonalLoop=1;jettySize=auto;html=1;entryX=0.5;entryY=0;entryDx=0;entryDy=0;" parent="1" source="2kikReYwpOozvWurzzx3-53" target="2kikReYwpOozvWurzzx3-57" edge="1">
          <mxGeometry relative="1" as="geometry" />
        </mxCell>
        <mxCell id="2kikReYwpOozvWurzzx3-53" value="/me" style="rounded=0;whiteSpace=wrap;html=1;" parent="1" vertex="1">
          <mxGeometry x="1267.36" y="-6901.92" width="85.12" height="40" as="geometry" />
        </mxCell>
        <mxCell id="UcXKhe7RDjSi8aUO6-n4-13" style="edgeStyle=orthogonalEdgeStyle;rounded=0;orthogonalLoop=1;jettySize=auto;html=1;entryX=0.5;entryY=0;entryDx=0;entryDy=0;" parent="1" source="2kikReYwpOozvWurzzx3-57" target="2kikReYwpOozvWurzzx3-89" edge="1">
          <mxGeometry relative="1" as="geometry">
            <Array as="points">
              <mxPoint x="1510" y="-6800" />
              <mxPoint x="1510" y="-6090" />
              <mxPoint x="469" y="-6090" />
            </Array>
          </mxGeometry>
        </mxCell>
        <mxCell id="2kikReYwpOozvWurzzx3-57" value="Пользователю выводится информация о профиле" style="rounded=0;whiteSpace=wrap;html=1;" parent="1" vertex="1">
          <mxGeometry x="1249.9199999999998" y="-6830" width="120" height="60" as="geometry" />
        </mxCell>
        <mxCell id="2kikReYwpOozvWurzzx3-114" style="edgeStyle=orthogonalEdgeStyle;rounded=0;orthogonalLoop=1;jettySize=auto;html=1;entryX=0.5;entryY=0;entryDx=0;entryDy=0;" parent="1" source="2kikReYwpOozvWurzzx3-60" target="2kikReYwpOozvWurzzx3-89" edge="1">
          <mxGeometry relative="1" as="geometry">
            <Array as="points">
              <mxPoint x="1510" y="-6990" />
              <mxPoint x="1510" y="-6090" />
              <mxPoint x="469" y="-6090" />
            </Array>
          </mxGeometry>
        </mxCell>
        <mxCell id="2kikReYwpOozvWurzzx3-60" value="Сообщение о необходимости зарегистрироваться" style="rounded=0;whiteSpace=wrap;html=1;" parent="1" vertex="1">
          <mxGeometry x="844.6800000000001" y="-7020" width="120" height="60" as="geometry" />
        </mxCell>
        <mxCell id="2kikReYwpOozvWurzzx3-63" value="Сообщение, что нет действий для отмены" style="rounded=0;whiteSpace=wrap;html=1;" parent="1" vertex="1">
          <mxGeometry x="409.44" y="-6840" width="120" height="60" as="geometry" />
        </mxCell>
        <mxCell id="2kikReYwpOozvWurzzx3-103" style="edgeStyle=orthogonalEdgeStyle;rounded=0;orthogonalLoop=1;jettySize=auto;html=1;entryX=1;entryY=0.5;entryDx=0;entryDy=0;" parent="1" source="2kikReYwpOozvWurzzx3-85" target="2kikReYwpOozvWurzzx3-102" edge="1">
          <mxGeometry relative="1" as="geometry" />
        </mxCell>
        <mxCell id="2kikReYwpOozvWurzzx3-85" value="APScheduler&lt;div&gt;1 раз в минуту&lt;/div&gt;" style="rounded=1;whiteSpace=wrap;html=1;" parent="1" vertex="1">
          <mxGeometry x="270.75" y="-7185" width="109.46" height="50" as="geometry" />
        </mxCell>
        <mxCell id="2kikReYwpOozvWurzzx3-89" value="Конец" style="rounded=1;whiteSpace=wrap;html=1;" parent="1" vertex="1">
          <mxGeometry x="436.94" y="-6070" width="64.99" height="30" as="geometry" />
        </mxCell>
        <mxCell id="2kikReYwpOozvWurzzx3-105" style="edgeStyle=orthogonalEdgeStyle;rounded=0;orthogonalLoop=1;jettySize=auto;html=1;entryX=0;entryY=0.5;entryDx=0;entryDy=0;" parent="1" source="2kikReYwpOozvWurzzx3-102" target="2kikReYwpOozvWurzzx3-104" edge="1">
          <mxGeometry relative="1" as="geometry">
            <Array as="points">
              <mxPoint x="113.40000000000009" y="-7085" />
            </Array>
          </mxGeometry>
        </mxCell>
        <mxCell id="2kikReYwpOozvWurzzx3-102" value="Отправить пользователям напоминания о мероприятиях" style="rounded=0;whiteSpace=wrap;html=1;" parent="1" vertex="1">
          <mxGeometry x="53.40000000000009" y="-7197.5" width="120" height="75" as="geometry" />
        </mxCell>
        <mxCell id="2kikReYwpOozvWurzzx3-104" value="Конец APScheduler" style="rounded=1;whiteSpace=wrap;html=1;" parent="1" vertex="1">
          <mxGeometry x="270.75" y="-7110" width="109.46" height="50" as="geometry" />
        </mxCell>
        <mxCell id="UcXKhe7RDjSi8aUO6-n4-4" value="нет" style="edgeStyle=orthogonalEdgeStyle;rounded=0;orthogonalLoop=1;jettySize=auto;html=1;exitX=0.5;exitY=1;exitDx=0;exitDy=0;entryX=0.5;entryY=0;entryDx=0;entryDy=0;" parent="1" source="UcXKhe7RDjSi8aUO6-n4-2" target="wRdySnD_7Ozf8cjfNw9P-108" edge="1">
          <mxGeometry relative="1" as="geometry" />
        </mxCell>
        <mxCell id="UcXKhe7RDjSi8aUO6-n4-10" value="да" style="edgeStyle=orthogonalEdgeStyle;rounded=0;orthogonalLoop=1;jettySize=auto;html=1;entryX=0.5;entryY=0;entryDx=0;entryDy=0;" parent="1" source="UcXKhe7RDjSi8aUO6-n4-2" target="UcXKhe7RDjSi8aUO6-n4-9" edge="1">
          <mxGeometry relative="1" as="geometry">
            <Array as="points">
              <mxPoint x="1000" y="-6800" />
              <mxPoint x="1000" y="-6520" />
              <mxPoint x="1160" y="-6520" />
              <mxPoint x="1160" y="-6320" />
              <mxPoint x="1067" y="-6320" />
            </Array>
          </mxGeometry>
        </mxCell>
        <mxCell id="UcXKhe7RDjSi8aUO6-n4-2" value="Пользователь - организатор?" style="rhombus;whiteSpace=wrap;html=1;" parent="1" vertex="1">
          <mxGeometry x="824.68" y="-6840" width="150" height="80" as="geometry" />
        </mxCell>
        <mxCell id="UcXKhe7RDjSi8aUO6-n4-7" value="нет" style="edgeStyle=orthogonalEdgeStyle;rounded=0;orthogonalLoop=1;jettySize=auto;html=1;" parent="1" source="UcXKhe7RDjSi8aUO6-n4-5" target="wRdySnD_7Ozf8cjfNw9P-142" edge="1">
          <mxGeometry relative="1" as="geometry" />
        </mxCell>
        <mxCell id="UcXKhe7RDjSi8aUO6-n4-11" style="edgeStyle=orthogonalEdgeStyle;rounded=0;orthogonalLoop=1;jettySize=auto;html=1;exitX=0;exitY=0.5;exitDx=0;exitDy=0;" parent="1" source="UcXKhe7RDjSi8aUO6-n4-5" target="UcXKhe7RDjSi8aUO6-n4-9" edge="1">
          <mxGeometry relative="1" as="geometry">
            <Array as="points">
              <mxPoint x="1000" y="-6800" />
              <mxPoint x="1000" y="-6520" />
              <mxPoint x="1160" y="-6520" />
              <mxPoint x="1160" y="-6320" />
              <mxPoint x="1067" y="-6320" />
            </Array>
          </mxGeometry>
        </mxCell>
        <mxCell id="UcXKhe7RDjSi8aUO6-n4-5" value="Пользователь - организатор?" style="rhombus;whiteSpace=wrap;html=1;" parent="1" vertex="1">
          <mxGeometry x="1029.8" y="-6840" width="150" height="80" as="geometry" />
        </mxCell>
        <mxCell id="UcXKhe7RDjSi8aUO6-n4-12" style="edgeStyle=orthogonalEdgeStyle;rounded=0;orthogonalLoop=1;jettySize=auto;html=1;entryX=0.5;entryY=0;entryDx=0;entryDy=0;" parent="1" source="UcXKhe7RDjSi8aUO6-n4-9" target="2kikReYwpOozvWurzzx3-89" edge="1">
          <mxGeometry relative="1" as="geometry">
            <Array as="points">
              <mxPoint x="1067" y="-6090" />
              <mxPoint x="469" y="-6090" />
            </Array>
          </mxGeometry>
        </mxCell>
        <mxCell id="UcXKhe7RDjSi8aUO6-n4-9" value="Сообщить пользователю, что команда недоступна" style="rounded=0;whiteSpace=wrap;html=1;" parent="1" vertex="1">
          <mxGeometry x="1007.43" y="-6290.09" width="120" height="60" as="geometry" />
        </mxCell>
      </root>
    </mxGraphModel>
  </diagram>
</mxfile>
